/* XPM */
static char *haskell_30[] = {
/* columns rows colors chars-per-pixel */
"30 30 2 1 ",
"  c None",
". c white",
/* pixels */
"                              ",
"                              ",
"                              ",
"                              ",
"                              ",
"......  .....                 ",
"  .....  ....                 ",
"   ....  .....                ",
"   ....  ......               ",
"   ......  .....              ",
"    .....   ....              ",
"     .....  ....  ............",
"      ....  ......  ..........",
"      .....  .....            ",
"      ......  .....           ",
"      ......  .....           ",
"      .....  .......          ",
"      ....  .........  .......",
"     .....  ..........  ......",
"    .....   ..... ....        ",
"   ......  .....  ....        ",
"   ....  ......   ......      ",
"   ....  .....     .....      ",
"  .....  ....       .....     ",
"......  .....        ....     ",
"                              ",
"                              ",
"                              ",
"                              ",
"                              "
};
